HIERARCHY
ROOT root
{
	OFFSET 0.000000 0.000000 0.000000
	CHANNELS 6 Xposition Yposition Zposition Zrotation Yrotation Xrotation
	JOINT lhip
	{
		OFFSET 0.058581 -0.082280 -0.017664
		CHANNELS 3 Zrotation Yrotation Xrotation
		JOINT lknee
		{
			OFFSET 0.043451 -0.386469 0.008037
			CHANNELS 3 Zrotation Yrotation Xrotation
			JOINT lankle
			{
				OFFSET -0.014790 -0.426874 -0.037428
				CHANNELS 3 Zrotation Yrotation Xrotation
				JOINT ltoe
				{
					OFFSET 0.041054 -0.060286 0.122042
					CHANNELS 3 Zrotation Yrotation Xrotation
					End Site
					{
						OFFSET 0.000000 0.000000 0.000000
					}
				}
			}
		}
	}
	JOINT rhip
	{
		OFFSET -0.060310 -0.090513 -0.013543
		CHANNELS 3 Zrotation Yrotation Xrotation
		JOINT rknee
		{
			OFFSET -0.043257 -0.383688 -0.004843
			CHANNELS 3 Zrotation Yrotation Xrotation
			JOINT rankle
			{
				OFFSET 0.019056 -0.420046 -0.034562
				CHANNELS 3 Zrotation Yrotation Xrotation
				JOINT rtoe
				{
					OFFSET -0.034840 -0.062106 0.130323
					CHANNELS 3 Zrotation Yrotation Xrotation
					End Site
					{
						OFFSET 0.000000 0.000000 0.000000
					}
				}
			}
		}
	}
	JOINT lowerback
	{
		OFFSET 0.004439 0.124404 -0.038385
		CHANNELS 3 Zrotation Yrotation Xrotation
		JOINT upperback
		{
			OFFSET 0.004488 0.137956 0.026820
			CHANNELS 3 Zrotation Yrotation Xrotation
			JOINT chest
			{
				OFFSET -0.002265 0.056032 0.002855
				CHANNELS 3 Zrotation Yrotation Xrotation
				JOINT lowerneck
				{
					OFFSET -0.013390 0.211636 -0.033468
					CHANNELS 3 Zrotation Yrotation Xrotation
					JOINT upperneck
					{
						OFFSET 0.010113 0.088937 0.050410
						CHANNELS 3 Zrotation Yrotation Xrotation
						End Site
						{
							OFFSET 0.000000 0.000000 0.000000
						}
					}
				}
				JOINT lclavicle
				{
					OFFSET 0.071702 0.114000 -0.018898
					CHANNELS 3 Zrotation Yrotation Xrotation
					JOINT lshoulder
					{
						OFFSET 0.122921 0.045205 -0.019046
						CHANNELS 3 Zrotation Yrotation Xrotation
						JOINT lelbow
						{
							OFFSET 0.255332 -0.015649 -0.022946
							CHANNELS 3 Zrotation Yrotation Xrotation
							JOINT lwrist
							{
								OFFSET 0.265709 0.012698 -0.007375
								CHANNELS 3 Zrotation Yrotation Xrotation
								End Site
								{
									OFFSET 0.000000 0.000000 0.000000
								}
							}
						}
					}
				}
				JOINT rclavicle
				{
					OFFSET -0.082954 0.112472 -0.023707
					CHANNELS 3 Zrotation Yrotation Xrotation
					JOINT rshoulder
					{
						OFFSET -0.113228 0.046853 -0.008472
						CHANNELS 3 Zrotation Yrotation Xrotation
						JOINT relbow
						{
							OFFSET -0.260127 -0.014369 -0.031269
							CHANNELS 3 Zrotation Yrotation Xrotation
							JOINT rwrist
							{
								OFFSET -0.269108 0.006794 -0.006027
								CHANNELS 3 Zrotation Yrotation Xrotation
								End Site
								{
									OFFSET 0.000000 0.000000 0.000000
								}
							}
						}
					}
				}
			}
		}
	}
}
MOTION
Frames: 10
Frame Time: 0.033333
0.451137 0.168542 1.016296 95.211276 3.677487 109.338112 7.037073 0.623162 -22.717290 3.339731 1.716316 -1.336217 -6.153727 5.959668 3.835078 0.000000 -0.000000 0.000000 1.353729 0.025807 -21.827123 -2.297434 -0.498416 1.778565 6.040651 -3.802983 4.272933 0.000000 -0.000000 0.000000 1.100558 0.854139 17.594680 3.319469 -4.088645 -7.282418 8.258772 0.945029 -6.710651 -6.046250 4.035925 -14.318486 5.171629 9.046531 -6.700430 -5.066117 -36.470436 -7.029794 -58.555117 -43.748370 13.469999 29.422239 -29.429961 -32.867394 26.992436 7.381979 -25.658784 2.759464 37.071556 -5.239217 48.534996 49.496654 12.955200 -13.587140 30.436213 -10.098201 -19.346784 -2.993276 -8.341704 
0.455821 0.165001 1.015682 95.489551 3.724619 108.482339 7.285021 0.713753 -21.650942 3.245834 1.449151 -1.073486 -6.322946 6.078562 3.173963 0.000000 -0.000000 0.000000 1.733444 -0.167691 -20.547606 -2.337392 -0.505515 1.853577 5.935330 -3.931691 3.676181 0.000000 -0.000000 0.000000 1.324817 0.131805 16.210427 2.383265 -3.856627 -8.018699 7.688582 0.368994 -6.204012 -4.999484 3.132169 -13.421293 5.046133 10.467727 -5.019603 -7.604176 -33.114587 -5.449268 -61.154628 -41.395778 14.832364 34.641462 -36.077585 -35.085711 28.781844 7.132806 -27.086340 1.922740 34.680105 -6.150136 50.862792 49.753835 16.270729 -10.668900 35.408418 -5.119132 -21.429659 -1.732894 -7.046304 
0.460795 0.161193 1.014302 95.615343 3.776191 107.594390 7.478218 1.095720 -20.459033 3.133938 0.975550 -0.916478 -6.582653 6.259175 2.430662 0.000000 -0.000000 0.000000 2.167715 -0.420386 -19.247001 -2.405064 -0.301716 1.938179 5.763277 -4.038895 2.898212 0.000000 -0.000000 0.000000 1.516124 -0.597123 14.858003 1.308026 -3.559481 -9.022706 7.179053 -0.064668 -5.624293 -3.915146 1.858978 -12.076265 5.130911 11.753693 -3.419588 -10.057527 -29.742798 -3.848494 -63.639382 -38.718488 15.576218 40.073256 -41.896459 -37.474997 30.812836 7.455076 -28.171286 1.410106 32.686376 -6.417688 53.304631 50.306156 19.014832 -6.494632 39.512393 0.789231 -23.897769 -0.862878 -6.549586 
0.465789 0.157084 1.012457 95.571646 3.744831 106.692313 7.621660 1.469392 -19.132538 3.007276 0.686913 -0.896180 -6.710024 6.326485 1.604991 0.000000 -0.000000 0.000000 2.504355 -0.613240 -17.991340 -2.504785 -0.221776 2.123481 5.537014 -3.928571 1.796152 0.000000 -0.000000 0.000000 1.558532 -1.175175 13.395102 0.260447 -3.187947 -9.875199 6.569594 -0.235801 -5.131670 -2.931597 0.725411 -10.642664 5.463837 12.582182 -1.738712 -12.231793 -26.401623 -2.405562 -66.120666 -35.825025 16.098034 46.174229 -46.838409 -40.711196 33.264964 7.968153 -28.765687 1.318105 31.119681 -6.458231 56.421076 50.725459 21.893899 -2.235062 42.527461 6.996373 -24.999606 -0.078904 -6.078062 
0.470536 0.152751 1.010384 95.416320 3.592164 105.687892 7.694034 1.739708 -17.687168 2.876176 0.524961 -0.852586 -6.760997 6.316826 0.630336 0.000000 -0.000000 0.000000 2.705796 -0.733322 -16.683646 -2.648135 -0.327917 2.400949 5.270254 -3.688229 0.346903 0.000000 -0.000000 0.000000 1.533413 -1.506730 11.958004 -0.814017 -2.710407 -10.292750 5.798588 -0.191517 -4.963239 -1.888659 -0.192130 -9.373783 5.924084 12.670394 -0.024489 -14.062225 -23.199714 -1.177533 -68.331177 -32.738231 16.336390 53.155118 -50.808321 -44.964030 35.642356 8.142997 -28.892499 1.620028 30.009985 -6.430814 59.948180 50.810992 24.895490 2.015257 44.786283 13.115887 -24.982272 0.614729 -5.840670 
0.474653 0.148280 1.008099 95.248778 3.348068 104.610507 7.710748 1.976148 -16.293587 2.744791 0.241277 -0.630587 -6.840883 6.347441 -0.446514 0.000000 -0.000000 0.000000 2.839972 -0.884891 -15.369014 -2.821845 -0.432306 2.739359 4.905934 -3.487261 -1.338783 0.000000 -0.000000 0.000000 1.510100 -1.577460 10.693144 -1.945828 -2.119925 -10.424587 4.962204 -0.038451 -5.055933 -0.698327 -1.061730 -8.228152 6.394334 12.173073 1.452873 -15.497250 -20.272393 -0.091422 -69.967528 -29.623666 16.022899 61.152740 -53.867403 -50.032337 37.926546 8.085968 -28.630463 2.151367 29.328613 -6.250614 63.448214 50.808361 27.550610 6.368483 46.585881 19.467079 -24.481544 1.296400 -6.046392 
0.477868 0.143699 1.005644 95.160956 3.109035 103.589261 7.744003 2.291859 -15.114110 2.623596 -0.220376 -0.286840 -6.996640 6.424288 -1.458969 0.000000 -0.000000 0.000000 3.020843 -1.098139 -14.176080 -3.016291 -0.433515 3.062986 4.404994 -3.371189 -3.005856 0.000000 -0.000000 0.000000 1.548574 -1.479981 9.670868 -3.090521 -1.405450 -10.707726 4.186214 0.159620 -5.176914 0.480585 -2.084037 -7.261875 6.865322 11.260343 2.789446 -16.684869 -17.739046 1.037253 -70.708896 -26.642715 14.925835 70.603121 -56.309331 -56.033496 40.204673 7.685171 -27.883809 2.663190 29.158164 -5.793579 66.572571 51.011431 29.557765 10.735744 48.186772 26.087465 -24.800607 1.953493 -6.690626 
0.480317 0.139020 1.003345 95.232047 2.991420 102.663380 7.891535 2.784826 -14.133635 2.541892 -0.754649 0.036423 -7.327659 6.374097 -2.255754 0.000000 -0.000000 0.000000 3.330726 -1.354924 -13.066993 -3.194550 -0.414016 3.249357 3.871410 -3.219150 -4.316021 0.000000 -0.000000 0.000000 1.688396 -1.292254 8.893810 -4.160987 -0.630625 -11.222852 3.537495 0.423571 -5.301632 1.447947 -3.316610 -6.347951 7.417013 10.011135 3.784020 -17.711423 -15.632031 2.243860 -70.510485 -23.939942 13.158290 82.002247 -58.101476 -63.532389 42.482189 6.804402 -26.681023 3.036865 29.478104 -5.060228 69.139162 51.586257 30.908232 15.008877 49.972719 32.837331 -26.705963 2.535020 -7.656927 
0.482156 0.134175 1.001648 95.470465 3.047712 101.753994 8.248954 3.312911 -13.230209 2.499888 -1.172353 0.309163 -7.825289 6.124032 -2.787779 0.000000 -0.000000 0.000000 3.738235 -1.570852 -11.891299 -3.271021 -0.532966 3.231871 3.501901 -2.923082 -5.113769 0.000000 -0.000000 0.000000 1.971744 -1.123924 8.269942 -5.107695 0.094822 -11.389491 2.970327 0.865581 -5.649349 2.273824 -4.536211 -5.757213 7.858398 8.642636 4.561698 -18.199205 -13.799780 2.928157 -70.038862 -21.658999 11.313616 95.030021 -58.538560 -72.611811 44.538416 5.649456 -25.388756 3.040835 30.150405 -4.533015 71.513263 52.527585 32.165024 18.849512 52.347704 39.094658 -29.180934 3.150145 -8.682980 
0.483507 0.129249 1.001140 95.918212 3.229880 100.963556 8.731347 3.694346 -12.565534 2.540391 -1.554708 0.692586 -8.253633 5.755363 -3.260824 0.000000 -0.000000 0.000000 4.200367 -1.753160 -10.786749 -3.252318 -0.873172 3.125574 3.400106 -2.455759 -5.622945 0.000000 -0.000000 0.000000 2.096607 -0.730570 8.039954 -5.832737 1.006765 -12.667167 2.704441 1.094376 -5.367658 2.821077 -5.937211 -4.878097 8.151630 7.467630 5.046647 -18.679760 -12.410866 3.428688 -69.477891 -20.260141 9.763566 108.127748 -57.108136 -82.150961 46.151497 4.707228 -24.366882 2.661435 30.726748 -4.317729 73.732040 53.648869 33.464419 22.556454 55.506840 45.204269 -31.636436 3.816810 -9.706702 
